<svg width="36" height="33" viewBox="0 0 36 33" fill="none" xmlns="http://www.w3.org/2000/svg">
<path d="M10.4944 0.00588668C10.4332 0.010991 10.325 0.0222204 10.2546 0.0314081C10.1842 0.0405958 10.0648 0.0589713 9.98925 0.0732633C9.91373 0.0875553 9.79638 0.113077 9.72902 0.129411C9.66167 0.146765 9.54432 0.178412 9.4688 0.19985C9.39329 0.222308 9.27797 0.259059 9.21368 0.281518C9.14939 0.304998 9.03408 0.348895 8.95856 0.380542C8.88305 0.412188 8.74732 0.472419 8.65752 0.516315C8.56772 0.559191 8.42996 0.630651 8.35138 0.673527C8.2728 0.717424 8.133 0.798072 8.04013 0.853198C7.94727 0.908325 7.80032 1.00326 7.71358 1.0635C7.62684 1.12373 7.49316 1.21867 7.41764 1.27481C7.34213 1.33096 7.22273 1.42386 7.15232 1.48001C7.08191 1.53717 6.97884 1.62395 6.92271 1.67397C6.86658 1.72297 6.73392 1.84956 6.62677 1.9547C6.51962 2.05985 6.37675 2.21196 6.30838 2.29363C6.24001 2.37428 6.14409 2.49167 6.09612 2.55293C6.04714 2.61418 5.9604 2.73668 5.90223 2.82345C5.84407 2.91023 5.76141 3.04396 5.71855 3.1195C5.67467 3.19505 5.60629 3.32367 5.56547 3.40534C5.52466 3.48701 5.47057 3.60135 5.44506 3.66056C5.42057 3.71977 5.37873 3.82491 5.35322 3.89535C5.3277 3.96579 5.29097 4.07809 5.27056 4.14546C5.25117 4.21284 5.22055 4.32513 5.20423 4.39557C5.1879 4.46601 5.16239 4.58545 5.1481 4.661C5.13381 4.73654 5.11238 4.87231 5.10116 4.96215C5.08993 5.05199 5.07667 5.1898 5.07054 5.26841C5.06544 5.34701 5.06034 5.51035 5.06034 5.63081C5.06034 5.75127 5.06544 5.91665 5.07054 5.99832C5.07667 6.07999 5.08789 6.21066 5.09707 6.28926C5.10524 6.36787 5.12361 6.50364 5.13789 6.59042C5.15116 6.67719 5.17667 6.82011 5.19402 6.90688C5.21137 6.99366 5.24096 7.12943 5.25933 7.20804C5.2777 7.28664 5.31036 7.41017 5.33076 7.48367C5.35117 7.55717 5.39301 7.69499 5.42465 7.78993C5.45628 7.88487 5.50323 8.02268 5.52976 8.09618C5.55629 8.16968 5.61038 8.30954 5.65017 8.40754C5.68997 8.50555 5.74916 8.65051 5.78284 8.72911C5.81651 8.80772 5.8859 8.96187 5.93795 9.0711C5.98897 9.18033 6.08082 9.36409 6.14102 9.47944C6.20225 9.5948 6.3043 9.78264 6.36859 9.898C6.43288 10.0134 6.52166 10.1665 6.56554 10.24C6.60942 10.3135 6.68902 10.4411 6.74209 10.5258C6.79617 10.6095 6.90128 10.7729 6.9768 10.8882C7.05231 11.0036 7.15742 11.1598 7.21151 11.2353C7.26457 11.3109 7.35029 11.4303 7.40132 11.5007C7.45234 11.5712 7.55541 11.711 7.63092 11.8121C7.70542 11.9132 7.80032 12.0367 7.84012 12.0877C7.87992 12.1388 8.01666 12.3082 8.1432 12.4655C8.27076 12.6227 8.49527 12.8891 8.64222 13.0576C8.79019 13.226 8.93611 13.3914 8.96775 13.4251C8.99938 13.4587 9.10041 13.567 9.19225 13.665C9.2841 13.763 9.48513 13.9692 9.6382 14.1213L9.91781 14.4C9.79536 14.4 9.60351 14.4051 9.41268 14.4102C9.22185 14.4153 8.98102 14.4245 8.87693 14.4306C8.77284 14.4367 8.55956 14.45 8.4024 14.4612C8.24525 14.4725 8.02483 14.4908 7.91257 14.5021C7.80032 14.5143 7.60949 14.5347 7.48908 14.549C7.36866 14.5633 7.15742 14.5909 7.01966 14.6103C6.88189 14.6297 6.65943 14.6644 6.52472 14.6868C6.39002 14.7093 6.14409 14.7563 5.97877 14.7889C5.81345 14.8226 5.56956 14.8757 5.43791 14.9063C5.30627 14.9369 5.11136 14.9849 5.00421 15.0135C4.89706 15.0411 4.73276 15.088 4.63684 15.1156C4.54091 15.1442 4.37356 15.1973 4.26437 15.234C4.15517 15.2708 3.99394 15.3269 3.9072 15.3596C3.82046 15.3923 3.66636 15.4515 3.56534 15.4923C3.46431 15.5331 3.3245 15.5913 3.25409 15.6219C3.18368 15.6536 3.03979 15.722 2.93264 15.7751C2.82549 15.8292 2.65405 15.9211 2.54996 15.9803C2.44587 16.0395 2.29688 16.1293 2.21831 16.1793C2.13973 16.2294 2.02544 16.3049 1.96421 16.3478C1.90298 16.3917 1.79073 16.4764 1.71419 16.5377C1.63765 16.5989 1.52948 16.6887 1.47336 16.7377C1.41723 16.7867 1.30192 16.898 1.21824 16.9838C1.13354 17.0705 1.01516 17.2002 0.953934 17.2737C0.893726 17.3472 0.805965 17.4595 0.759023 17.5238C0.713102 17.5881 0.642688 17.6943 0.60391 17.7586C0.564112 17.8229 0.506965 17.924 0.47533 17.9832C0.444716 18.0424 0.38859 18.1567 0.352873 18.2384C0.316136 18.3201 0.266132 18.4436 0.24062 18.514C0.216129 18.5845 0.178371 18.7008 0.156941 18.7744C0.136531 18.8479 0.105917 18.9693 0.0906099 19.0449C0.0742822 19.1204 0.0518318 19.245 0.0406065 19.3205C0.0293813 19.3961 0.0150944 19.5298 0.00795109 19.6166C0.000807741 19.7166 -0.0022536 19.8953 0.00182831 20.1015C0.00591022 20.3363 0.0130536 20.4771 0.0273403 20.6017C0.039586 20.6966 0.061016 20.8467 0.0753027 20.9335C0.0895894 21.0202 0.118163 21.1652 0.137552 21.255C0.156941 21.3449 0.189596 21.4806 0.210006 21.5562C0.229395 21.6317 0.272255 21.7818 0.305931 21.888C0.338586 21.9941 0.388589 22.1462 0.416142 22.2248C0.443695 22.3035 0.487576 22.4249 0.514108 22.4954C0.540641 22.5658 0.585542 22.6822 0.616156 22.7557C0.64575 22.8292 0.707999 22.9731 0.753921 23.0773C0.800863 23.1814 0.918218 23.4223 1.01414 23.6132C1.11007 23.8041 1.22232 24.0195 1.26314 24.093C1.30498 24.1665 1.38662 24.3064 1.4458 24.4044C1.50499 24.5024 1.60806 24.6678 1.67541 24.7719C1.74174 24.876 1.8295 25.0067 1.8693 25.0628C1.9091 25.119 1.9989 25.2405 2.06932 25.3334C2.13871 25.4263 2.23361 25.5477 2.27851 25.6039C2.32342 25.66 2.4224 25.7774 2.49792 25.8642C2.57445 25.951 2.74487 26.1307 2.87651 26.2634C3.00816 26.3951 3.18266 26.5615 3.2643 26.6309C3.34593 26.7003 3.449 26.7881 3.4939 26.8248C3.53881 26.8616 3.62146 26.9259 3.67759 26.9688C3.73372 27.0106 3.85107 27.0933 3.93781 27.1525C4.02455 27.2117 4.15109 27.2944 4.21844 27.3363C4.2858 27.3781 4.40315 27.4476 4.47867 27.4904C4.55418 27.5323 4.68786 27.6017 4.7746 27.6446C4.86134 27.6864 5.0134 27.7548 5.11136 27.7967C5.20933 27.8385 5.35832 27.8978 5.44302 27.9294C5.5267 27.96 5.66446 28.007 5.74916 28.0335C5.83284 28.0601 5.97979 28.1009 6.07571 28.1264C6.17164 28.1509 6.31349 28.1846 6.39206 28.2009C6.47064 28.2173 6.61044 28.2428 6.70331 28.2571C6.79617 28.2714 6.9523 28.2928 7.05027 28.303C7.14824 28.3143 7.28906 28.3286 7.36152 28.3347C7.43397 28.3408 7.64317 28.348 7.82583 28.352C8.03299 28.3551 8.24219 28.3531 8.38199 28.3459C8.50547 28.3388 8.70344 28.3245 8.8208 28.3132C8.93816 28.303 9.10857 28.2847 9.19838 28.2724C9.28818 28.2612 9.4535 28.2367 9.56575 28.2173C9.678 28.1979 9.85046 28.1662 9.94843 28.1458C10.0464 28.1254 10.2372 28.0805 10.3719 28.0468C10.5066 28.0131 10.7179 27.9559 10.8413 27.9192C10.9648 27.8835 11.1903 27.812 11.3414 27.761C11.4924 27.7109 11.7139 27.6334 11.8312 27.5895C11.9486 27.5445 12.1374 27.47 12.2496 27.4231C12.3619 27.3761 12.5639 27.2873 12.6986 27.226C12.8333 27.1658 13.065 27.0545 13.214 26.981C13.3629 26.9065 13.5466 26.8116 13.6221 26.7697C13.6977 26.7289 13.8538 26.6401 13.9691 26.5737C14.0844 26.5084 14.2426 26.4134 14.3212 26.3644L14.464 26.2746C14.4753 26.3797 14.4855 26.491 14.4947 26.589C14.5028 26.687 14.5243 26.8636 14.5416 26.982C14.5579 27.1005 14.5926 27.2995 14.6181 27.4261C14.6436 27.5527 14.6845 27.7385 14.711 27.8396C14.7365 27.9406 14.7835 28.1111 14.8171 28.2173C14.8498 28.3235 14.9008 28.4796 14.9314 28.5644C14.962 28.6481 15.0059 28.7634 15.0273 28.8196C15.0498 28.8757 15.1039 29.0064 15.1488 29.1105C15.1927 29.2147 15.2723 29.3892 15.3263 29.4985C15.3804 29.6077 15.459 29.7567 15.4998 29.8302C15.5406 29.9037 15.6223 30.0416 15.6815 30.1365C15.7407 30.2314 15.8203 30.356 15.857 30.4121C15.8948 30.4683 15.9682 30.5714 16.0203 30.6418C16.0723 30.7123 16.1519 30.8154 16.1968 30.8715C16.2427 30.9277 16.3213 31.0216 16.3713 31.0808C16.4223 31.14 16.5356 31.2605 16.6224 31.3503C16.7091 31.4391 16.8397 31.5657 16.9132 31.631C16.9867 31.6964 17.0979 31.7913 17.1612 31.8413C17.2244 31.8924 17.3489 31.9842 17.4367 32.0475C17.5245 32.1108 17.6612 32.2007 17.7398 32.2476C17.8184 32.2956 17.9398 32.364 18.0102 32.4018C18.0806 32.4385 18.2 32.4967 18.2755 32.5314C18.351 32.5651 18.4592 32.6121 18.5153 32.6345C18.5715 32.657 18.6766 32.6958 18.7501 32.7213C18.8235 32.7458 18.945 32.7846 19.0205 32.806C19.096 32.8275 19.2225 32.8591 19.3011 32.8755C19.3797 32.8928 19.5195 32.9183 19.6124 32.9326C19.7052 32.9469 19.843 32.9632 19.9185 32.9694C19.994 32.9755 20.0869 32.9847 20.1246 32.9898C20.1634 32.9959 20.3053 33 20.441 33C20.5777 33 20.7145 32.9959 20.7451 32.9908C20.7757 32.9847 20.8726 32.9755 20.9594 32.9694C21.0461 32.9632 21.1982 32.9469 21.2961 32.9326C21.3941 32.9183 21.5645 32.8897 21.6737 32.8673C21.7829 32.8459 21.9278 32.8122 21.9952 32.7928C22.0625 32.7724 22.1768 32.7356 22.2503 32.7091C22.3238 32.6825 22.4493 32.6294 22.5309 32.5896C22.6126 32.5508 22.734 32.4865 22.8013 32.4467C22.8687 32.4069 22.9677 32.3436 23.0208 32.3058C23.0738 32.268 23.1677 32.1935 23.2299 32.1394C23.2922 32.0863 23.3861 31.9975 23.4391 31.9424C23.4932 31.8862 23.5708 31.7995 23.6137 31.7495C23.6555 31.6994 23.7218 31.6116 23.7616 31.5555C23.8014 31.4993 23.8739 31.387 23.9229 31.3054C23.9718 31.2237 24.0402 31.1002 24.0769 31.0297C24.1127 30.9593 24.1708 30.8307 24.2076 30.7439C24.2433 30.6571 24.2964 30.5163 24.3249 30.4325C24.3535 30.3478 24.3964 30.21 24.4188 30.1263C24.4423 30.0416 24.477 29.9068 24.4953 29.8251C24.5137 29.7435 24.5413 29.6148 24.5555 29.5393C24.5698 29.4638 24.5933 29.328 24.6066 29.2381C24.6209 29.1483 24.6413 28.9901 24.6525 28.8859C24.6637 28.7818 24.6811 28.5919 24.6913 28.4623C24.7045 28.2836 24.7086 28.1009 24.7086 27.6966C24.7086 27.3016 24.7045 27.0954 24.6913 26.8902C24.6811 26.7391 24.6637 26.5135 24.6525 26.3899C24.6413 26.2664 24.6229 26.0827 24.6117 25.9816C24.6005 25.8805 24.5749 25.6805 24.5555 25.5375C24.5362 25.3946 24.4974 25.1374 24.4688 24.9659C24.4413 24.7943 24.4066 24.5922 24.3923 24.5167C24.378 24.4411 24.3484 24.287 24.3259 24.1747C24.3025 24.0624 24.2668 23.895 24.2453 23.8021C24.2239 23.7092 24.1923 23.5785 24.1749 23.5111C24.1586 23.4438 24.1463 23.3866 24.1494 23.3835C24.1514 23.3805 24.1545 23.3805 24.1565 23.3835C24.1586 23.3866 24.1841 23.4182 24.2147 23.455C24.2453 23.4917 24.3647 23.6285 24.48 23.7602C24.5954 23.8919 24.7535 24.0695 24.8321 24.1532C24.9107 24.238 25.0301 24.3646 25.0984 24.435C25.1658 24.5054 25.2352 24.5779 25.2515 24.5973C25.2678 24.6157 25.4281 24.775 25.6077 24.9495C25.7873 25.1241 26.0608 25.3803 26.2148 25.5192C26.3689 25.657 26.5577 25.8224 26.6343 25.8867C26.7108 25.95 26.8435 26.0592 26.9292 26.1296C27.0159 26.2001 27.1374 26.296 27.1996 26.344C27.2608 26.392 27.4057 26.5002 27.5211 26.5839C27.6364 26.6676 27.8201 26.7973 27.9293 26.8708C28.0384 26.9443 28.1895 27.0423 28.2629 27.0882C28.3374 27.1331 28.4915 27.224 28.6048 27.2903C28.7191 27.3557 28.9038 27.4557 29.0161 27.5129C29.1283 27.569 29.3049 27.6517 29.4089 27.6956C29.513 27.7395 29.6549 27.7977 29.7253 27.8243C29.7957 27.8508 29.9243 27.8957 30.011 27.9243C30.0978 27.9529 30.2406 27.9947 30.3274 28.0172C30.4141 28.0397 30.5468 28.0693 30.6203 28.0836C30.6947 28.0989 30.8284 28.1193 30.9162 28.1315C31.005 28.1428 31.1713 28.155 31.2866 28.1581C31.4152 28.1622 31.555 28.1591 31.6489 28.152C31.7326 28.1448 31.8663 28.1285 31.9448 28.1152C32.0234 28.1019 32.1336 28.0795 32.1897 28.0652C32.2459 28.0509 32.3479 28.0213 32.4173 27.9978C32.4857 27.9753 32.6051 27.9294 32.6816 27.8947C32.7592 27.861 32.8776 27.8028 32.9449 27.7661C33.0123 27.7283 33.1 27.6783 33.1388 27.6528C33.1776 27.6272 33.2694 27.5629 33.3429 27.5078C33.4164 27.4537 33.5194 27.369 33.5725 27.322C33.6256 27.274 33.7235 27.1801 33.7888 27.1137C33.8541 27.0464 33.945 26.9484 33.9909 26.8953C34.0368 26.8422 34.1215 26.736 34.1787 26.6605C34.2358 26.5849 34.3195 26.4675 34.3644 26.4002C34.4103 26.3328 34.4838 26.2144 34.5297 26.1368C34.5756 26.0602 34.642 25.9449 34.6777 25.8816C34.7134 25.8193 34.7695 25.7121 34.8042 25.6447C34.8389 25.5773 34.9012 25.4467 34.943 25.3538C34.9848 25.2609 35.0604 25.0822 35.1114 24.9556C35.1614 24.8291 35.2338 24.6412 35.2716 24.5371C35.3093 24.433 35.3634 24.2788 35.391 24.1951C35.4185 24.1104 35.4685 23.9501 35.5022 23.8378C35.5359 23.7255 35.6002 23.4917 35.6441 23.3172C35.689 23.1426 35.7451 22.9068 35.7706 22.7914C35.7951 22.6761 35.8298 22.5035 35.8471 22.4086C35.8655 22.3137 35.8931 22.1411 35.9094 22.0258C35.9257 21.9104 35.9482 21.7267 35.9594 21.6174C35.9706 21.5082 35.9849 21.3265 35.9921 21.2142C35.9992 21.0866 36.0023 20.8702 35.9982 20.6374C35.9951 20.4118 35.9869 20.1964 35.9767 20.0913C35.9676 19.9963 35.9502 19.8534 35.939 19.7748C35.9278 19.6962 35.9053 19.5584 35.888 19.4685C35.8716 19.3787 35.841 19.2409 35.8216 19.1623C35.8022 19.0837 35.7726 18.9734 35.7563 18.9173C35.74 18.8611 35.7022 18.7417 35.6716 18.6518C35.641 18.562 35.5941 18.4334 35.5675 18.366C35.541 18.2986 35.4787 18.1608 35.4308 18.0598C35.3818 17.9587 35.3063 17.8137 35.2624 17.7382C35.2185 17.6626 35.1359 17.5289 35.0787 17.4421C35.0216 17.3554 34.9318 17.2267 34.8787 17.1563C34.8256 17.0859 34.7409 16.9807 34.6899 16.9215C34.6399 16.8623 34.5358 16.75 34.4603 16.6714C34.3848 16.5928 34.2766 16.4856 34.2205 16.4325C34.1644 16.3804 34.0725 16.2988 34.0164 16.2518C33.9603 16.2049 33.848 16.116 33.7664 16.0527C33.6847 15.9905 33.5378 15.8853 33.4398 15.819C33.3419 15.7536 33.2153 15.672 33.1592 15.6383C33.1031 15.6046 32.9745 15.5321 32.8735 15.477C32.7724 15.4219 32.602 15.3341 32.4959 15.282C32.3898 15.2299 32.2214 15.1534 32.1234 15.1115C32.0255 15.0697 31.8367 14.9962 31.705 14.9482C31.5734 14.9012 31.3866 14.8359 31.2917 14.8053C31.1968 14.7736 31.0376 14.7256 30.9397 14.697C30.8417 14.6695 30.658 14.6205 30.5315 14.5888C30.4049 14.5582 30.2008 14.5113 30.0774 14.4868C29.9539 14.4622 29.7682 14.4275 29.6641 14.4112C29.56 14.3939 29.3487 14.3642 29.1946 14.3449C29.0406 14.3255 28.8334 14.302 28.7354 14.2928C28.6375 14.2836 28.4885 14.2734 28.4048 14.2693C28.3221 14.2652 28.2517 14.2591 28.2497 14.254C28.2476 14.2499 28.2834 14.2183 28.3303 14.1836C28.3762 14.1478 28.4834 14.0621 28.5671 13.9916C28.6518 13.9222 28.7936 13.8007 28.8834 13.7221C28.9732 13.6425 29.1293 13.5026 29.2304 13.4097C29.3314 13.3168 29.5457 13.1106 29.7059 12.9504C29.8661 12.7901 30.058 12.5951 30.1304 12.5165C30.2039 12.4379 30.3253 12.3042 30.3998 12.2204C30.4753 12.1357 30.606 11.9836 30.6907 11.8836C30.7743 11.7825 30.8948 11.6355 30.956 11.5569C31.0182 11.4783 31.1234 11.3405 31.1907 11.2506C31.2581 11.1608 31.3336 11.0577 31.3591 11.0209C31.3856 10.9842 31.4754 10.8515 31.5591 10.7249C31.6428 10.5983 31.7509 10.4309 31.7979 10.3523C31.8458 10.2737 31.9173 10.1522 31.9571 10.0818C31.9969 10.0113 32.0836 9.84389 32.151 9.70914C32.2183 9.57438 32.3 9.40492 32.3326 9.33142C32.3643 9.25792 32.4143 9.14154 32.4418 9.0711C32.4704 9.00066 32.5112 8.89245 32.5326 8.8312C32.5551 8.76995 32.5939 8.64949 32.6183 8.56578C32.6428 8.48105 32.6847 8.32792 32.7092 8.22379C32.7347 8.11966 32.7694 7.95428 32.7857 7.85628C32.8031 7.75828 32.8245 7.60821 32.8347 7.5245C32.848 7.40915 32.852 7.29073 32.8531 7.0447C32.8531 6.83951 32.848 6.67209 32.8398 6.59552C32.8326 6.52815 32.8133 6.39543 32.7969 6.29947C32.7806 6.20351 32.749 6.05243 32.7265 5.96259C32.703 5.87276 32.6663 5.74208 32.6428 5.67165C32.6204 5.60121 32.5785 5.48381 32.549 5.41133C32.5204 5.33885 32.4571 5.19797 32.4081 5.09997C32.3591 5.00196 32.2806 4.857 32.2336 4.7784C32.1867 4.69979 32.1142 4.58443 32.0724 4.52318C32.0316 4.46193 31.9632 4.36495 31.9214 4.3088C31.8785 4.25265 31.8142 4.16996 31.7775 4.12505C31.7407 4.08013 31.6713 4.0005 31.6244 3.9464C31.5785 3.89331 31.4611 3.76979 31.3642 3.67179C31.2683 3.5748 31.1142 3.4278 31.0213 3.34613C30.9284 3.26548 30.7978 3.15421 30.7305 3.10011C30.6631 3.046 30.5417 2.95208 30.46 2.89083C30.3784 2.8306 30.2406 2.7326 30.1539 2.67543C30.0672 2.61724 29.9171 2.52332 29.8222 2.46615C29.7273 2.40899 29.5498 2.31302 29.4294 2.25279C29.3089 2.19256 29.1457 2.11702 29.0671 2.08435C28.9885 2.05271 28.8365 1.99656 28.7303 1.96083C28.6242 1.9251 28.4548 1.87406 28.3558 1.84853C28.2558 1.82301 28.1129 1.79137 28.0395 1.7781C27.965 1.7638 27.8486 1.74543 27.7813 1.73726C27.7139 1.72909 27.5966 1.71684 27.5211 1.71072C27.4455 1.70561 27.2894 1.70051 27.1741 1.70051C27.0588 1.70051 26.9006 1.70561 26.822 1.71174C26.7435 1.71684 26.5985 1.73318 26.5006 1.74747C26.4026 1.76176 26.2577 1.78626 26.1791 1.80362C26.1006 1.81995 25.9679 1.85262 25.8832 1.87508C25.7995 1.89754 25.6362 1.94756 25.5209 1.98635C25.4056 2.02514 25.2403 2.08537 25.1536 2.12212C25.0668 2.15785 24.9199 2.22421 24.827 2.26913C24.7341 2.31405 24.5739 2.39776 24.4698 2.45594C24.3657 2.51413 24.2351 2.58866 24.179 2.62234C24.1229 2.65603 23.9963 2.73668 23.8984 2.80202C23.8004 2.86735 23.6024 3.00823 23.4596 3.11542C23.3167 3.22261 23.1371 3.36247 23.0616 3.42576C22.9861 3.49007 22.8411 3.61564 22.7401 3.70547C22.6391 3.79531 22.5064 3.91781 22.4452 3.97702C22.384 4.03623 22.2166 4.20365 22.0727 4.34964C21.9288 4.49562 21.7217 4.71612 21.6115 4.83965C21.5023 4.96317 21.3717 5.11222 21.3206 5.17143C21.2706 5.23064 21.1512 5.3756 21.0553 5.493C20.9604 5.61039 20.8431 5.75842 20.7951 5.81967C20.7471 5.88092 20.641 6.0218 20.5594 6.13103C20.4777 6.24026 20.3349 6.43831 20.24 6.57C20.1461 6.70169 19.9705 6.95895 19.8491 7.14168C19.7287 7.32441 19.5828 7.54696 19.5256 7.6368C19.4685 7.72663 19.3297 7.95428 19.2174 8.14212C19.1042 8.32996 18.9786 8.54332 18.9368 8.61682C18.895 8.69032 18.7868 8.88531 18.697 9.05068C18.6072 9.21606 18.4766 9.46209 18.4072 9.59684C18.3388 9.7316 18.2806 9.83674 18.2796 9.83164C18.2776 9.82654 18.2694 9.76631 18.2602 9.69893C18.251 9.63155 18.2306 9.50088 18.2133 9.40798C18.197 9.31509 18.1663 9.164 18.1469 9.0711C18.1276 8.9782 18.0816 8.7873 18.0459 8.64745C18.0102 8.50657 17.9571 8.3075 17.9286 8.20337C17.899 8.09925 17.8551 7.94816 17.8306 7.86649C17.8051 7.78482 17.7479 7.60821 17.703 7.47346C17.6581 7.33871 17.5704 7.09268 17.5081 6.9273C17.4469 6.76192 17.353 6.51692 17.3 6.38318C17.2469 6.25047 17.1652 6.05243 17.1183 5.94422C17.0714 5.83703 16.9581 5.58998 16.8673 5.39601C16.7764 5.20205 16.6785 4.99788 16.6499 4.94173C16.6213 4.88559 16.5519 4.75287 16.4948 4.64568C16.4376 4.53849 16.3223 4.33228 16.2397 4.1863C16.157 4.04032 16.0366 3.83614 15.9713 3.73202C15.907 3.62789 15.8029 3.46761 15.7417 3.37472C15.6794 3.28182 15.5876 3.14604 15.5366 3.07356C15.4866 3.00006 15.4039 2.88573 15.3529 2.81835C15.3029 2.75097 15.1967 2.6152 15.1182 2.5172C15.0396 2.41919 14.9406 2.29771 14.8988 2.24667C14.8559 2.19563 14.7712 2.09967 14.709 2.03229C14.6477 1.96593 14.5232 1.83526 14.4334 1.74237C14.3436 1.65049 14.2079 1.51982 14.1314 1.45142C14.0548 1.38302 13.9518 1.29319 13.9018 1.25133C13.8518 1.20846 13.7762 1.14618 13.7344 1.1125C13.6926 1.07779 13.6232 1.0247 13.5813 0.994077C13.5395 0.963451 13.4364 0.891991 13.3517 0.835844C13.268 0.780717 13.1527 0.707216 13.0966 0.672506C13.0405 0.638818 12.9394 0.58165 12.8721 0.544899C12.8047 0.508148 12.6854 0.447918 12.6068 0.412188C12.5282 0.375437 12.4159 0.327457 12.3568 0.303977C12.2976 0.281518 12.1761 0.238642 12.0863 0.210058C11.9965 0.181474 11.8516 0.139619 11.7649 0.118181C11.6781 0.096743 11.5496 0.0702008 11.4791 0.0579505C11.4087 0.0457002 11.2893 0.0293664 11.2138 0.0211995C11.1383 0.0120118 10.9709 0.00282411 10.8413 0.000782392C10.7117 -0.00125932 10.5556 0.000782392 10.4944 0.00588668Z" fill="#FFA624"/>
</svg>
